<?xml version="1.0" encoding="utf-8"?>
<!-- Generator: Adobe Illustrator 16.0.0, SVG Export Plug-In . SVG Version: 6.00 Build 0)  -->
<!DOCTYPE svg PUBLIC "-//W3C//DTD SVG 1.1//EN" "http://www.w3.org/Graphics/SVG/1.1/DTD/svg11.dtd">
<svg version="1.1" id="Layer_1" xmlns="http://www.w3.org/2000/svg" xmlns:xlink="http://www.w3.org/1999/xlink" x="0px" y="0px"
	 width="222.75px" height="23.25px" viewBox="0 0 222.75 23.25" enable-background="new 0 0 222.75 23.25" xml:space="preserve">
<polygon fill="none" stroke="#FFFFFF" stroke-width="0.5" stroke-miterlimit="5" points="3.837,1.735 1.562,1.735 1.562,16.812 
	3.837,16.812 3.837,9.772 10.341,9.772 10.341,16.812 12.616,16.812 12.616,1.735 10.341,1.735 10.341,7.633 3.837,7.633 "/>
<polygon fill="none" stroke="#FFFFFF" stroke-width="0.5" stroke-miterlimit="5" points="24.95,1.735 16.629,1.735 16.629,16.812 
	24.95,16.812 24.95,14.673 18.905,14.673 18.905,9.635 24.773,9.635 24.773,7.497 18.905,7.497 18.905,3.874 24.95,3.874 "/>
<polygon fill="none" stroke="#FFFFFF" stroke-width="0.5" stroke-miterlimit="5" points="28.338,1.735 28.338,16.812 35.047,16.812 
	35.047,14.673 30.613,14.673 30.613,1.735 "/>
<polygon fill="none" stroke="#FFFFFF" stroke-width="0.5" stroke-miterlimit="5" points="45.925,1.735 37.605,1.735 37.605,16.812 
	45.925,16.812 45.925,14.673 39.88,14.673 39.88,9.635 45.75,9.635 45.75,7.497 39.88,7.497 39.88,3.874 45.925,3.874 "/>
<polygon fill="none" stroke="#FFFFFF" stroke-width="0.5" stroke-miterlimit="5" points="51.589,16.812 51.589,6.256 62.585,17.73 
	62.585,1.735 60.31,1.735 60.31,12.213 49.314,0.709 49.314,16.812 "/>
<path fill="none" stroke="#FFFFFF" stroke-width="0.5" stroke-miterlimit="5" d="M77.624,1.442c-1.289,0-2.367,0.384-3.232,1.152
	c-0.866,0.762-1.299,1.709-1.299,2.842c0,1.68,1.032,2.956,3.095,3.828l1.456,0.605c0.377,0.163,0.703,0.333,0.976,0.512
	c0.274,0.181,0.496,0.372,0.669,0.577c0.172,0.205,0.299,0.43,0.381,0.673c0.081,0.245,0.122,0.514,0.122,0.807
	c0,0.729-0.234,1.332-0.703,1.809c-0.469,0.477-1.058,0.713-1.768,0.713c-0.898,0-1.582-0.326-2.051-0.979
	c-0.26-0.338-0.442-0.949-0.546-1.836l-2.305,0.508c0.208,1.406,0.732,2.498,1.572,3.271c0.853,0.775,1.934,1.163,3.242,1.163
	c1.381,0,2.536-0.456,3.467-1.366c0.925-0.906,1.387-2.052,1.387-3.439c0-1.033-0.283-1.907-0.85-2.62
	c-0.566-0.713-1.461-1.317-2.685-1.812l-1.504-0.615c-1.094-0.449-1.641-1.042-1.641-1.777c0-0.534,0.208-0.977,0.625-1.328
	c0.417-0.358,0.941-0.538,1.572-0.538c0.515,0,0.935,0.105,1.26,0.313c0.313,0.182,0.641,0.573,0.987,1.172l1.845-1.094
	C80.72,2.288,79.361,1.442,77.624,1.442z"/>
<path fill="none" stroke="#FFFFFF" stroke-width="0.5" stroke-miterlimit="5" d="M85.23,1.735v9.707
	c0,1.589,0.495,2.896,1.484,3.926c1.107,1.146,2.471,1.719,4.092,1.719s2.988-0.571,4.102-1.719
	c0.989-1.029,1.484-2.337,1.484-3.926V1.735h-2.275v9.082c0,1.314-0.212,2.262-0.635,2.842c-0.632,0.866-1.523,1.299-2.676,1.299
	c-1.146,0-2.034-0.433-2.666-1.299c-0.423-0.599-0.635-1.546-0.635-2.842V1.735H85.23z"/>
<polygon fill="none" stroke="#FFFFFF" stroke-width="0.5" stroke-miterlimit="5" points="108.023,3.874 108.023,1.734 98.824,1.734 
	98.824,3.874 102.291,3.874 102.291,16.812 104.566,16.812 104.566,3.874 "/>
<polygon fill="none" stroke="#FFFFFF" stroke-width="0.5" stroke-miterlimit="5" points="118.773,1.735 110.455,1.735 
	110.455,16.812 118.773,16.812 118.773,14.673 112.729,14.673 112.729,9.635 118.6,9.635 118.6,7.497 112.729,7.497 112.729,3.874 
	118.773,3.874 "/>
<path fill="none" stroke="#FFFFFF" stroke-width="0.5" stroke-miterlimit="5" d="M124.438,3.874h0.812
	c2.098,0,3.146,0.771,3.146,2.314c0,1.648-1.078,2.471-3.232,2.471h-0.723V3.874H124.438z M129.691,8.913
	c0.613-0.768,0.918-1.686,0.918-2.754c0-1.367-0.487-2.467-1.465-3.301c-0.887-0.748-2.324-1.123-4.315-1.123h-2.666v15.078h2.274
	v-6.169h0.41l4.307,6.169h2.783l-4.668-6.423C128.273,10.172,129.08,9.68,129.691,8.913z"/>
</svg>
