<?xml version="1.0" encoding="utf-8"?>
<!-- Generator: Adobe Illustrator 24.0.2, SVG Export Plug-In . SVG Version: 6.00 Build 0)  -->
<svg version="1.1" xmlns="http://www.w3.org/2000/svg" xmlns:xlink="http://www.w3.org/1999/xlink" x="0px" y="0px"
	 viewBox="0 0 134.3 44.9" style="enable-background:new 0 0 134.3 44.9;" xml:space="preserve">
<style type="text/css">
	.st0{fill:none;stroke:#FFFFFF;stroke-width:0.5;stroke-miterlimit:5;}
	.st1{enable-background:new    ;}
	.st2{fill:#FFCB00;}
</style>
<g id="Layer_1">
	<polygon class="st0" points="3.8,1.7 1.6,1.7 1.6,16.8 3.8,16.8 3.8,9.8 10.3,9.8 10.3,16.8 12.6,16.8 12.6,1.7 10.3,1.7 10.3,7.6 
		3.8,7.6 	"/>
	<polygon class="st0" points="25,1.7 16.6,1.7 16.6,16.8 25,16.8 25,14.7 18.9,14.7 18.9,9.6 24.8,9.6 24.8,7.5 18.9,7.5 18.9,3.9 
		25,3.9 	"/>
	<polygon class="st0" points="28.3,1.7 28.3,16.8 35,16.8 35,14.7 30.6,14.7 30.6,1.7 	"/>
	<polygon class="st0" points="45.9,1.7 37.6,1.7 37.6,16.8 45.9,16.8 45.9,14.7 39.9,14.7 39.9,9.6 45.8,9.6 45.8,7.5 39.9,7.5 
		39.9,3.9 45.9,3.9 	"/>
	<polygon class="st0" points="51.6,16.8 51.6,6.3 62.6,17.7 62.6,1.7 60.3,1.7 60.3,12.2 49.3,0.7 49.3,16.8 	"/>
	<path class="st0" d="M77.6,1.4c-1.3,0-2.4,0.4-3.2,1.2c-0.9,0.8-1.3,1.7-1.3,2.8c0,1.7,1,3,3.1,3.8l1.5,0.6c0.4,0.2,0.7,0.3,1,0.5
		s0.5,0.4,0.7,0.6c0.2,0.2,0.3,0.4,0.4,0.7c0.1,0.2,0.1,0.5,0.1,0.8c0,0.7-0.2,1.3-0.7,1.8S78,15,77.3,15c-0.9,0-1.6-0.3-2.1-1
		c-0.3-0.3-0.4-0.9-0.5-1.8l-2.3,0.5c0.2,1.4,0.7,2.5,1.6,3.3c0.9,0.8,1.9,1.2,3.2,1.2c1.4,0,2.5-0.5,3.5-1.4
		c0.9-0.9,1.4-2.1,1.4-3.4c0-1-0.3-1.9-0.8-2.6c-0.6-0.7-1.5-1.3-2.7-1.8L77,7.2c-1.1-0.4-1.6-1-1.6-1.8c0-0.5,0.2-1,0.6-1.3
		c0.4-0.4,0.9-0.5,1.6-0.5c0.5,0,0.9,0.1,1.3,0.3c0.3,0.2,0.6,0.6,1,1.2L81.7,4C80.7,2.3,79.4,1.4,77.6,1.4z"/>
	<path class="st0" d="M85.2,1.7v9.7c0,1.6,0.5,2.9,1.5,3.9c1.1,1.1,2.5,1.7,4.1,1.7s3-0.6,4.1-1.7c1-1,1.5-2.3,1.5-3.9V1.7h-2.3v9.1
		c0,1.3-0.2,2.3-0.6,2.8C92.8,14.5,92,15,90.8,15c-1.1,0-2-0.4-2.7-1.3c-0.4-0.6-0.6-1.5-0.6-2.8V1.7H85.2z"/>
	<polygon class="st0" points="108,3.9 108,1.7 98.8,1.7 98.8,3.9 102.3,3.9 102.3,16.8 104.6,16.8 104.6,3.9 	"/>
	<polygon class="st0" points="118.8,1.7 110.5,1.7 110.5,16.8 118.8,16.8 118.8,14.7 112.7,14.7 112.7,9.6 118.6,9.6 118.6,7.5 
		112.7,7.5 112.7,3.9 118.8,3.9 	"/>
	<path class="st0" d="M124.4,3.9h0.8c2.1,0,3.1,0.8,3.1,2.3c0,1.6-1.1,2.5-3.2,2.5h-0.7L124.4,3.9L124.4,3.9z M129.7,8.9
		c0.6-0.8,0.9-1.7,0.9-2.8c0-1.4-0.5-2.5-1.5-3.3c-0.9-0.7-2.3-1.1-4.3-1.1h-2.7v15.1h2.3v-6.2h0.4l4.3,6.2h2.8l-4.7-6.4
		C128.3,10.2,129.1,9.7,129.7,8.9z"/>
</g>
<g id="Layer_2">
	<g>
		<g class="st1">
			<path class="st2" d="M7.7,23.6v10c0,1.2-0.1,2.1-0.2,2.7C7.3,37,7.1,37.5,6.7,38c-0.8,0.9-1.8,1.4-3,1.4c-1,0-1.8-0.3-2.7-0.8
				l1.1-2c0.6,0.4,1.1,0.6,1.6,0.6c0.7,0,1.1-0.3,1.4-0.8s0.4-1.4,0.4-2.7v-10h2.2V23.6z"/>
		</g>
		<g class="st1">
			<path class="st2" d="M20,34.7h-6.8c0.1,0.8,0.3,1.4,0.8,1.9c0.4,0.5,1,0.7,1.7,0.7c0.5,0,1-0.1,1.4-0.4c0.4-0.3,0.8-0.7,1.2-1.4
				l1.9,1c-0.3,0.5-0.6,0.9-0.9,1.3c-0.3,0.3-0.7,0.6-1,0.9c-0.4,0.2-0.8,0.4-1.2,0.5s-0.9,0.2-1.4,0.2c-1.4,0-2.6-0.5-3.4-1.4
				c-0.9-0.9-1.3-2.1-1.3-3.7c0-1.5,0.4-2.7,1.2-3.7c0.8-0.9,2-1.4,3.3-1.4c1.4,0,2.5,0.4,3.3,1.3s1.2,2.1,1.2,3.7V34.7z M17.7,32.9
				c-0.3-1.2-1-1.8-2.2-1.8c-0.3,0-0.5,0-0.8,0.1s-0.4,0.2-0.6,0.4c-0.2,0.2-0.4,0.3-0.5,0.6s-0.2,0.5-0.3,0.7H17.7z"/>
		</g>
		<g class="st1">
			<path class="st2" d="M24,29.5l2.5,5.4l2.7-6.3l2.7,6.3l2.5-5.4h2.5l-5,10.2l-2.7-6.1l-2.7,6.1l-5-10.2C21.6,29.5,24,29.5,24,29.5
				z"/>
		</g>
		<g class="st1">
			<path class="st2" d="M47.2,34.7h-6.8c0.1,0.8,0.3,1.4,0.8,1.9c0.4,0.5,1,0.7,1.7,0.7c0.5,0,1-0.1,1.4-0.4
				c0.4-0.3,0.8-0.7,1.2-1.4l1.9,1c-0.3,0.5-0.6,0.9-0.9,1.3c-0.3,0.3-0.7,0.6-1,0.9c-0.4,0.2-0.8,0.4-1.2,0.5s-0.9,0.2-1.4,0.2
				c-1.4,0-2.6-0.5-3.4-1.4c-0.9-0.9-1.3-2.1-1.3-3.7c0-1.5,0.4-2.7,1.2-3.7c0.8-0.9,2-1.4,3.3-1.4c1.4,0,2.5,0.4,3.3,1.3
				s1.2,2.1,1.2,3.7V34.7z M44.9,32.9c-0.3-1.2-1-1.8-2.2-1.8c-0.3,0-0.5,0-0.8,0.1s-0.4,0.2-0.6,0.4c-0.2,0.2-0.4,0.3-0.5,0.6
				s-0.2,0.5-0.3,0.7H44.9z"/>
		</g>
		<g class="st1">
			<path class="st2" d="M52.4,23.6V39h-2.2V23.6H52.4z"/>
		</g>
		<g class="st1">
			<path class="st2" d="M55.2,29.5h2.2v0.9c0.4-0.4,0.8-0.7,1.1-0.9c0.3-0.2,0.7-0.2,1.1-0.2c0.6,0,1.2,0.2,1.8,0.6l-1,2
				c-0.4-0.3-0.8-0.4-1.2-0.4c-1.2,0-1.8,0.9-1.8,2.7V39h-2.2C55.2,39,55.2,29.5,55.2,29.5z"/>
		</g>
		<g class="st1">
			<path class="st2" d="M67.4,37.2l-4.3-7.7h2.5l2.9,5.5l2.7-5.5h2.5l-7.5,14.6h-2.5L67.4,37.2z"/>
		</g>
	</g>
</g>
</svg>
