<?xml version="1.0" encoding="utf-8"?>
<!-- Generator: Adobe Illustrator 16.0.0, SVG Export Plug-In . SVG Version: 6.00 Build 0)  -->
<!DOCTYPE svg PUBLIC "-//W3C//DTD SVG 1.1//EN" "http://www.w3.org/Graphics/SVG/1.1/DTD/svg11.dtd">
<svg version="1.1" id="Layer_1" xmlns="http://www.w3.org/2000/svg" xmlns:xlink="http://www.w3.org/1999/xlink" x="0px" y="0px"
	 width="24px" height="24px" viewBox="0 0 24 24" enable-background="new 0 0 24 24" xml:space="preserve">
<path fill="#FFCB00" d="M23.289,4.943c-0.505-0.127-1.035,0.178-1.162,0.688l-2.097,8.33H7.856L4.976,2.166
	C4.875,1.733,4.497,1.427,4.042,1.427H0.96C0.429,1.427,0,1.86,0,2.396s0.429,0.968,0.96,0.968h2.35l3.89,15.999
	c0.101,0.433,0.479,0.739,0.934,0.739h11.089c0.53,0,0.96-0.434,0.96-0.969s-0.43-0.969-0.96-0.969H8.866L8.31,15.896h12.428
	c0.429,0,0.808-0.305,0.934-0.713l2.299-9.07C24.098,5.605,23.795,5.07,23.289,4.943L23.289,4.943z"/>
<path fill="#FFCB00" d="M11.468,22.445c0,0.857-0.689,1.555-1.54,1.555c-0.852,0-1.542-0.697-1.542-1.555s0.69-1.555,1.542-1.555
	C10.778,20.891,11.468,21.588,11.468,22.445z"/>
<path fill="#FFCB00" d="M19.424,22.445c0,0.857-0.689,1.555-1.539,1.555c-0.852,0-1.542-0.697-1.542-1.555s0.69-1.555,1.542-1.555
	C18.734,20.891,19.424,21.588,19.424,22.445z"/>
<path fill="#FFCB00" d="M16.697,6.114l-1.718,1.733V0.968C14.979,0.433,14.551,0,14.02,0s-0.961,0.433-0.961,0.968v6.879
	l-1.717-1.733c-0.177-0.178-0.429-0.281-0.682-0.281c-0.252,0-0.479,0.102-0.682,0.281c-0.379,0.382-0.379,0.993,0,1.351l3.36,3.389
	c0.354,0.356,0.984,0.356,1.338,0l3.36-3.389c0.379-0.382,0.379-0.993,0-1.351C17.682,5.732,17.076,5.732,16.697,6.114L16.697,6.114
	z"/>
</svg>
