<?xml version="1.0" encoding="utf-8"?>
<!-- Generator: Adobe Illustrator 16.0.0, SVG Export Plug-In . SVG Version: 6.00 Build 0)  -->
<!DOCTYPE svg PUBLIC "-//W3C//DTD SVG 1.1//EN" "http://www.w3.org/Graphics/SVG/1.1/DTD/svg11.dtd">
<svg version="1.1" id="Layer_1" xmlns="http://www.w3.org/2000/svg" xmlns:xlink="http://www.w3.org/1999/xlink" x="0px" y="0px"
	 width="2127px" height="2109px" viewBox="0 0 2127 2109" enable-background="new 0 0 2127 2109" xml:space="preserve">
<path fill="#E3E3E3" d="M853.42,1321.655c-10.042,6.558-18.512,5.506-24.596-2.611c-7.633-10.186-11.044-22.29-14.702-34.161
	c-2.101-6.82-5.333-8.625-12.326-7.015c-34.275,7.889-67.195,3.944-98.347-12.693c-4.056-2.163-7.597-2.755-11.557-0.039
	c-1.414,0.973-3.452,1.971-4.976,1.696c-12.456-2.248-17.504,7.431-23.909,14.705c-8.695,9.874-18.413,18.507-29.624,25.372
	c-7.885,4.829-12.287,3.048-15.672-5.646c-3.369-8.653-1.836-16.169,4.446-22.985c11.852-12.855,23.358-26.042,35.444-38.673
	c5.454-5.701,3.8-7.483-2.729-9.977c-34.131-13.024-60.709-35.189-79.89-66.438c-5.178-8.436-14.415-6.169-21.898-4.319
	c-14.374,3.55-28.254,9.038-42.938,11.498c-6.178,1.033-12.486,1.851-18.22-1.542c-3.998-2.366-6.151-5.109-0.219-8.192
	c4.321-2.243,13.976-3.334,2.756-10.287c-2.822-1.75,0.128-4.245,1.617-5.854c4.21-4.549,10.025-6.576,15.656-8.033
	c14.399-3.725,26.759-12.271,40.872-16.562c2.703-0.82,3.298-2.604,2.761-5.527c-2.155-11.754-0.52-23.61,0.127-35.579
	c0.37,2.573,0.739,5.146,1.108,7.722c-0.665-16.759-0.161-33.379,4.977-49.527c3.402-10.692,6.135-21.685,10.599-31.92
	c3.311-7.591,1.208-10.913-5.315-14.563c-17.334-9.704-34.414-19.866-51.442-30.102c-10.546-6.338-17.34-14.975-16.505-28.293
	c0.613-9.796,3.485-12.012,13.029-8.549c14.305,5.191,27.219,13.175,40.393,20.58c10.35,5.817,20.271,12.332,33.113,9.705
	c3.49-0.715,6.897,0.408,9.264,5.06c9.596-27.913,23.674-51.267,44.763-70.118c5.776-5.163,11.657-10.217,18.318-14.054
	c6.331-3.651,7.987-7.605,6.334-15.098c-6.326-28.66-13.672-57.125-18.091-86.176c-0.839-5.524-0.736-11.225-0.678-16.84
	c0.038-3.696,1.41-7.146,5.169-8.652c3.784-1.517,6.872,0.227,9.661,2.782c3.771,3.453,6.521,7.546,8.905,12.086
	c11.934,22.733,19.488,47.095,26.707,71.562c1.866,6.322,5.378,8.336,11.592,10.834c14.491,5.83,27.563,1.986,41.42-1
	c19.465-4.199,39.238-6.22,59.204-3.529c11.903,1.602,13.587,0.198,10.905-11.473c-4.916-21.376-10.514-42.595-15.682-63.916
	c-0.901-3.718-0.876-7.655-1.63-11.418c-1.766-8.801,2.377-13.324,10.433-15.637c11.008-3.164,14.374-1.921,18.406,8.779
	c8.488,22.53,14.439,45.84,19.244,69.361c2.529,12.378,6.793,20.076,20.586,23.646c33.512,8.677,60.283,28.582,81.595,55.68
	c4.054,5.155,6.872,5.292,12.319,1.664c17.001-11.325,33.718-23.339,53.346-29.977c5.175-1.751,11.196-4.659,15.264,1.767
	c4.081,6.446,3.104,13.298-1.331,19.139c-3.932,5.176-8.792,9.599-14.353,13.186c-12.711,8.203-25.218,16.724-38.071,24.693
	c-4.566,2.832-5.135,4.734-1.03,8.42c29.944,26.87,43.315,60.809,42.29,100.684c-0.165,6.466,4.154,5.24,7.822,5.309
	c16.885,0.314,33.835-0.949,50.603,2.06c3.475,0.626,7.137,1.163,10.23,2.71c3.589,1.795,6.61,4.592,2.435,9.019
	c-0.925,0.983-1.646,2.499-1.779,3.837c-1.391,13.65-10.086,17.443-22.437,18.521c-12.428,1.085-24.795,2.361-37.26,1.67
	c-6.259-0.348-9.053,1.772-9.342,8.479c-1.522,35.23-14.342,65.729-39.348,90.823c-4.282,4.299-3.381,6.288,2.289,7.228
	c14.073,2.339,28.057,4.971,40.5,12.61c6.56,4.03,11.114,8.961,8.971,17.433c-1.981,7.823-7.466,10.895-15.035,11.389
	c-15.614,1.025-30.748-1.992-45.708-5.782c-5.726-1.453-10.312-0.962-14.834,2.858c-29.852,25.229-64.459,38.384-103.415,39.874
	c-6.902,0.264-7.762,4.936-6.521,8.831c2.656,8.359,3.128,16.038,7.906,25.298c3.966,7.684,3.718,8.08,4.323,13.608
	c-0.674,2.487-0.984,3.265-3.317,7.101 M597.675,1131.58c-0.839,6.301-4.684,9.971-9.079,12.107
	c-7.424,3.609-6.784,7.632-3.514,14.062c5.827,11.465,16.151,18.766,23.99,28.293c11.343,13.78,25.764,23.173,42.073,28.652
	c10.84,3.642,23.343,8.343,34.172-2.185c2.589-2.517,6.02-1.605,9.123,0.167c11.979,6.836,14.068,14.114,5.688,25.174
	c-5.15,6.793-4.009,10.241,2.919,14.412c29.448,17.716,60.78,22.346,94.162,14.91c6.963-1.551,11.793-3.24,10.566-12.604
	c-1.078-8.205,2.087-15.891,11.661-18.538c8.879-2.458,15.047-0.032,20.979,8.972c2.072,3.145,4.054,5.664,8.196,5.84
	c38.265,1.615,71.312-11.29,101.394-35.844c-4.129-2.294-7.376-4.098-10.09-5.606c3.208-5.743,11.904-8.812,6.212-17.602
	c-1.408-2.175,0.436-5.382,1.848-4.815c5.99,2.4,7.46-2.967,10.802-5.229c33.343-22.578,47.553-55.437,51.084-94.195
	c0.732-8.021-2.093-12.161-10.395-13.005c-6.683-0.677-10.639-4.623-10.803-11.842c-0.172-7.633-0.352-14.958,8.556-18.508
	c11.46-4.569,13.299-7.604,12.339-20.173c-2.399-31.369-13.651-58.635-37.18-80.315c-5.136-4.732-9.54-8.106-17.097-4.357
	c-5.794,2.877-17.6-2.32-20.959-7.947c-4.365-7.308,2.921-9.701,5.977-13.835c1.048-1.416,2.39-2.647,3.726-3.816
	c2.988-2.606,3.29-5.36,0.877-8.533c-20.494-26.969-44.707-47.973-80.526-50.543c-3.92-0.281-5.332,1.839-5.722,5.194
	c-0.867,7.434-5.667,10.618-12.474,11.753c-7.378,1.228-13-1.251-15.936-8.203c-2.491-5.908-6.83-8.391-12.906-9.27
	c-34.807-5.03-68.525-2.035-101.029,12.307c-8.073,3.562-12.066,6.986-9.558,17.094c3.305,13.331-1.849,19.72-14.026,21.778
	c-9.386,1.588-14.183-3.678-17.988-11.197c-1.043-2.062-1.288-7.488-5.543-4.776c-14.662,9.345-32.824,13.72-41.562,31.536
	c-5.389,10.988-12.982,20.552-17.418,32.512c-6.453,17.407-7.957,16.796,6.319,28.153c5.705,4.539,10.961,8.797,6.023,17.705
	c-6.744,12.167-9.301,13.657-22.481,8.721c-2.498-0.935-5.139-1.667-7.399-3.021c-4.771-2.855-7.5-1.509-9.595,3.403
	c-12.778,29.961-17.978,61.383-17.374,93.732c0.244,13.122,1.056,13.093,14.741,12.186c3.717-0.245,7.194,0.538,9.609,3.573
	c1.527,1.916,2.559,4.621,0.382,6.431c-4.057,3.369-2.15,7.784-3.626,11.678C591.649,1136.522,592.863,1131.248,597.675,1131.58z"/>
<path fill="none" d="M603.149,1273.102c-11.604-0.799-14.533,11.921-26.193,10.58c3.561-9.392-1.036-20.04,8.745-28.165
	c5.25-4.361,2.762-10.887-0.921-15.511c-5.826-7.319-14.211-9.208-23.176-8.616c-33.005,2.188-34.962,2.259-35.552-29.387
	c-1.459-78.024,11.083-153.807,41.9-226.066c5.053-11.847,11.634-15.093,23.141-8.208c5.45,3.264,11.821,5.03,17.846,7.286
	c31.789,11.904,37.953,8.311,54.221-21.033c11.91-21.482-0.768-31.751-14.526-42.7c-34.43-27.391-30.806-25.917-15.242-67.899
	c10.699-28.848,29.014-51.913,42.009-78.413c21.074-42.967,64.875-53.52,100.238-76.058c10.264-6.542,10.854,6.547,13.371,11.52
	c9.177,18.135,20.745,30.836,43.382,27.006c29.37-4.965,41.799-20.374,33.828-52.523c-6.048-24.381,3.581-32.641,23.052-41.229
	c78.393-34.588,159.716-41.812,243.661-29.68c14.652,2.116,25.118,8.106,31.127,22.354c7.08,16.766,20.64,22.745,38.434,19.783
	c16.419-2.735,27.995-10.417,30.086-28.346c0.94-8.091,4.346-13.203,13.801-12.525c86.391,6.198,144.784,56.857,194.212,121.898
	c5.816,7.651,5.092,14.294-2.116,20.582c-3.223,2.814-6.458,5.783-8.985,9.2c-7.368,9.972-24.94,15.744-14.418,33.368
	c8.104,13.571,36.576,26.104,50.552,19.166c18.229-9.043,28.849-0.904,41.235,10.508c56.746,52.291,83.884,118.049,89.669,193.706
	c2.318,30.314-2.119,37.632-29.756,48.651c-21.484,8.563-21.052,26.229-20.635,44.639c0.394,17.413,9.937,26.928,26.053,28.562
	c20.021,2.034,26.838,12.021,25.072,31.364c-8.521,93.477-42.791,172.728-123.207,227.18c-8.061,5.456-11.607,18.397-26.053,12.608
	c-3.404-1.363-7.853,6.372-4.455,11.617c13.728,21.194-7.248,28.599-14.982,42.446c6.544,3.642,14.377,7.99,24.334,13.525
	c-72.549,59.218-152.255,90.343-244.539,86.444c-9.991-0.424-14.771-6.498-19.767-14.081c-14.312-21.718-29.185-27.568-50.602-21.64
	c-23.088,6.386-30.723,24.923-28.124,44.714c2.96,22.58-8.689,26.655-25.479,30.396c-80.511,17.934-156.08,6.769-227.103-35.962
	c-16.708-10.056-19.461-18.373-7.041-34.76c20.212-26.67,15.174-44.224-13.718-60.714c-7.486-4.272-15.761-6.472-22.005-0.4
	c-26.115,25.39-56.271,14.052-82.415,5.269c-39.334-13.215-74.116-35.866-101.47-69.104c-18.905-22.979-43.805-40.589-57.859-68.239
	c-7.886-15.508-9.432-25.21,8.475-33.911C591.851,1297.153,601.123,1288.299,603.149,1273.102z"/>
</svg>
