<?xml version="1.0" encoding="utf-8"?>
<!-- Generator: Adobe Illustrator 16.0.0, SVG Export Plug-In . SVG Version: 6.00 Build 0)  -->
<!DOCTYPE svg PUBLIC "-//W3C//DTD SVG 1.1//EN" "http://www.w3.org/Graphics/SVG/1.1/DTD/svg11.dtd">
<svg version="1.1" id="Layer_1" xmlns="http://www.w3.org/2000/svg" xmlns:xlink="http://www.w3.org/1999/xlink" x="0px" y="0px"
	 width="2127px" height="2109px" viewBox="0 0 2127 2109" enable-background="new 0 0 2127 2109" xml:space="preserve">
<path fill="#D8D8D8" d="M1040.628,1361.219c-11.064,7.227-20.398,6.066-27.101-2.876c-8.41-11.224-12.169-24.56-16.2-37.64
	c-2.314-7.515-5.876-9.504-13.58-7.73c-37.766,8.693-74.038,4.346-108.363-13.984c-4.469-2.384-8.37-3.036-12.733-0.043
	c-1.558,1.071-3.804,2.171-5.483,1.869c-13.725-2.478-19.286,8.188-26.343,16.201c-9.581,10.881-20.289,20.393-32.641,27.956
	c-8.689,5.32-13.539,3.358-17.268-6.221c-3.712-9.534-2.024-17.815,4.898-25.326c13.06-14.163,25.737-28.694,39.054-42.611
	c6.01-6.281,4.187-8.244-3.007-10.992c-37.606-14.351-66.891-38.773-88.025-73.204c-5.705-9.294-15.883-6.797-24.128-4.759
	c-15.838,3.912-31.131,9.958-47.31,12.669c-6.807,1.139-13.758,2.04-20.075-1.698c-4.405-2.607-6.778-5.63-0.242-9.027
	c4.761-2.472,15.399-3.673,3.037-11.334c-3.109-1.928,0.141-4.678,1.781-6.451c4.638-5.012,11.046-7.244,17.25-8.85
	c15.866-4.104,29.484-13.521,45.035-18.249c2.978-0.902,3.634-2.868,3.042-6.09c-2.374-12.95-0.572-26.014,0.14-39.201
	c0.408,2.835,0.814,5.669,1.221,8.508c-0.733-18.466-0.178-36.778,5.483-54.571c3.749-11.781,6.761-23.893,11.679-35.17
	c3.648-8.364,1.331-12.024-5.856-16.046c-19.099-10.692-37.918-21.889-56.68-33.167c-11.62-6.985-19.107-16.5-18.187-31.174
	c0.676-10.794,3.84-13.236,14.356-9.421c15.761,5.721,29.99,14.517,44.507,22.676c11.403,6.41,22.334,13.588,36.484,10.694
	c3.845-0.788,7.6,0.45,10.208,5.576c10.573-30.756,26.084-56.488,49.321-77.259c6.365-5.688,12.844-11.257,20.183-15.486
	c6.976-4.022,8.801-8.378,6.979-16.635c-6.969-31.579-15.064-62.942-19.933-94.951c-0.925-6.087-0.811-12.368-0.747-18.555
	c0.042-4.072,1.554-7.874,5.695-9.533c4.169-1.671,7.572,0.25,10.645,3.065c4.155,3.805,7.185,8.315,9.812,13.317
	c13.149,25.047,21.472,51.89,29.427,78.848c2.056,6.966,5.925,9.185,12.772,11.938c15.967,6.424,30.369,2.189,45.638-1.102
	c21.447-4.626,43.234-6.853,65.233-3.888c13.116,1.765,14.971,0.217,12.016-12.642c-5.417-23.553-11.585-46.932-17.28-70.425
	c-0.992-4.097-0.965-8.434-1.795-12.581c-1.946-9.697,2.619-14.681,11.496-17.229c12.129-3.486,15.837-2.117,20.28,9.673
	c9.353,24.824,15.91,50.508,21.204,76.424c2.787,13.639,7.485,22.12,22.682,26.055c36.926,9.56,66.422,31.492,89.904,61.35
	c4.467,5.68,7.572,5.831,13.573,1.833c18.731-12.478,37.151-25.715,58.779-33.029c5.701-1.929,12.335-5.133,16.817,1.947
	c4.497,7.103,3.42,14.652-1.467,21.087c-4.332,5.704-9.687,10.578-15.814,14.529c-14.006,9.039-27.786,18.427-41.948,27.208
	c-5.03,3.12-5.657,5.216-1.134,9.277c32.992,29.606,47.725,67.002,46.597,110.938c-0.183,7.125,4.576,5.774,8.617,5.85
	c18.605,0.345,37.281-1.045,55.757,2.27c3.828,0.689,7.863,1.281,11.272,2.985c3.954,1.979,7.282,5.06,2.682,9.938
	c-1.019,1.084-1.812,2.754-1.96,4.228c-1.532,15.04-11.113,19.219-24.722,20.407c-13.693,1.195-27.319,2.603-41.054,1.841
	c-6.897-0.384-9.976,1.951-10.294,9.341c-1.677,38.818-15.803,72.423-43.354,100.072c-4.719,4.737-3.725,6.929,2.521,7.965
	c15.507,2.577,30.914,5.477,44.625,13.894c7.227,4.44,12.246,9.874,9.884,19.209c-2.183,8.62-8.226,12.004-16.566,12.549
	c-17.204,1.129-33.879-2.195-50.362-6.371c-6.309-1.602-11.361-1.061-16.345,3.148c-32.892,27.799-71.022,42.293-113.946,43.935
	c-7.604,0.291-8.552,5.438-7.185,9.73c2.927,9.211,3.446,17.672,8.711,27.874c4.37,8.466,4.097,8.902,4.763,14.994
	c-0.742,2.741-1.083,3.598-3.654,7.823 M758.84,1151.788c-0.925,6.943-5.162,10.987-10.004,13.34
	c-8.18,3.978-7.475,8.409-3.872,15.495c6.419,12.632,17.795,20.676,26.433,31.174c12.498,15.183,28.388,25.533,46.357,31.569
	c11.943,4.013,25.72,9.191,37.651-2.407c2.853-2.773,6.634-1.769,10.052,0.184c13.199,7.532,15.501,15.551,6.268,27.737
	c-5.675,7.485-4.418,11.284,3.216,15.88c32.446,19.521,66.968,24.622,103.75,16.428c7.672-1.709,12.994-3.569,11.641-13.888
	c-1.188-9.04,2.3-17.508,12.849-20.425c9.783-2.709,16.579-0.035,23.114,9.885c2.284,3.466,4.468,6.241,9.031,6.436
	c42.161,1.779,78.574-12.439,111.719-39.494c-4.549-2.528-8.126-4.516-11.117-6.177c3.535-6.328,13.117-9.71,6.846-19.396
	c-1.552-2.396,0.479-5.93,2.035-5.304c6.601,2.643,8.22-3.27,11.902-5.763c36.738-24.878,52.395-61.082,56.286-103.786
	c0.807-8.839-2.306-13.4-11.454-14.329c-7.363-0.747-11.723-5.095-11.903-13.05c-0.189-8.409-0.388-16.48,9.429-20.392
	c12.627-5.035,14.652-8.378,13.596-22.228c-2.645-34.563-15.042-64.605-40.968-88.494c-5.659-5.213-10.511-8.931-18.838-4.8
	c-6.384,3.17-19.392-2.556-23.093-8.756c-4.811-8.052,3.219-10.689,6.586-15.244c1.154-1.56,2.633-2.916,4.105-4.204
	c3.293-2.872,3.625-5.907,0.966-9.402c-22.581-29.716-49.26-52.859-88.727-55.69c-4.319-0.31-5.875,2.026-6.305,5.722
	c-0.955,8.192-6.244,11.699-13.744,12.95c-8.129,1.354-14.324-1.378-17.56-9.038c-2.745-6.509-7.525-9.246-14.219-10.213
	c-38.352-5.543-75.503-2.243-111.317,13.56c-8.896,3.925-13.295,7.697-10.532,18.835c3.643,14.688-2.037,21.728-15.454,23.995
	c-10.341,1.75-15.628-4.052-19.82-12.337c-1.149-2.271-1.419-8.25-6.107-5.262c-16.155,10.296-36.167,15.116-45.794,34.747
	c-5.938,12.106-14.304,22.645-19.192,35.822c-7.11,19.181-8.767,18.507,6.962,31.021c6.286,5.001,12.077,9.693,6.637,19.508
	c-7.431,13.406-10.248,15.047-24.771,9.609c-2.752-1.03-5.662-1.837-8.152-3.329c-5.257-3.146-8.264-1.663-10.573,3.75
	c-14.079,33.012-19.809,67.633-19.144,103.278c0.269,14.458,1.165,14.426,16.243,13.426c4.095-0.27,7.927,0.594,10.588,3.938
	c1.683,2.111,2.819,5.092,0.421,7.086c-4.47,3.712-2.37,8.576-3.996,12.868C752.199,1157.233,753.537,1151.423,758.84,1151.788z"/>
</svg>
