<?xml version="1.0" encoding="utf-8"?>
<!-- Generator: Adobe Illustrator 16.0.0, SVG Export Plug-In . SVG Version: 6.00 Build 0)  -->
<!DOCTYPE svg PUBLIC "-//W3C//DTD SVG 1.1//EN" "http://www.w3.org/Graphics/SVG/1.1/DTD/svg11.dtd">
<svg version="1.1" id="Layer_1" xmlns="http://www.w3.org/2000/svg" xmlns:xlink="http://www.w3.org/1999/xlink" x="0px" y="0px"
	 width="2127px" height="2109px" viewBox="0 0 2127 2109" enable-background="new 0 0 2127 2109" xml:space="preserve">
<g id="Layer_1_1_" display="none">
	<path display="inline" fill="#D8D8D8" d="M1040.628,1361.219c-11.063,7.228-20.397,6.065-27.102-2.876
		c-8.41-11.225-12.169-24.561-16.2-37.641c-2.313-7.515-5.876-9.504-13.58-7.729c-37.766,8.692-74.037,4.347-108.362-13.983
		c-4.47-2.384-8.37-3.036-12.732-0.043c-1.559,1.071-3.805,2.171-5.482,1.869c-13.726-2.479-19.286,8.188-26.344,16.2
		c-9.581,10.882-20.289,20.394-32.642,27.957c-8.688,5.319-13.538,3.357-17.268-6.222c-3.713-9.534-2.023-17.814,4.897-25.326
		c13.061-14.163,25.736-28.693,39.054-42.61c6.011-6.281,4.188-8.244-3.007-10.992c-37.605-14.351-66.892-38.771-88.024-73.203
		c-5.705-9.294-15.884-6.797-24.128-4.76c-15.839,3.912-31.132,9.958-47.311,12.669c-6.808,1.14-13.759,2.04-20.075-1.697
		c-4.404-2.606-6.777-5.63-0.242-9.026c4.762-2.473,15.399-3.674,3.037-11.334c-3.108-1.929,0.142-4.679,1.781-6.451
		c4.638-5.013,11.046-7.244,17.25-8.851c15.865-4.104,29.483-13.521,45.034-18.249c2.979-0.901,3.635-2.868,3.042-6.09
		c-2.374-12.95-0.571-26.015,0.141-39.201c0.408,2.835,0.813,5.669,1.222,8.508c-0.732-18.466-0.179-36.777,5.482-54.57
		c3.749-11.78,6.761-23.894,11.679-35.17c3.648-8.364,1.331-12.023-5.855-16.046c-19.099-10.692-37.918-21.89-56.68-33.167
		c-11.62-6.985-19.106-16.5-18.188-31.175c0.676-10.794,3.84-13.235,14.355-9.421c15.762,5.722,29.989,14.518,44.507,22.676
		c11.403,6.41,22.334,13.589,36.484,10.694c3.845-0.788,7.6,0.449,10.207,5.575c10.573-30.756,26.084-56.487,49.321-77.259
		c6.364-5.688,12.844-11.257,20.184-15.485c6.977-4.021,8.801-8.379,6.979-16.636c-6.97-31.579-15.063-62.941-19.934-94.95
		c-0.926-6.088-0.812-12.368-0.747-18.556c0.042-4.072,1.555-7.874,5.694-9.533c4.17-1.671,7.572,0.25,10.646,3.065
		c4.155,3.805,7.186,8.313,9.812,13.316c13.148,25.047,21.473,51.891,29.428,78.848c2.057,6.967,5.925,9.186,12.771,11.938
		c15.967,6.425,30.369,2.189,45.639-1.102c21.446-4.626,43.233-6.854,65.232-3.889c13.115,1.766,14.971,0.217,12.016-12.643
		c-5.416-23.553-11.584-46.933-17.279-70.425c-0.992-4.098-0.965-8.435-1.795-12.581c-1.945-9.697,2.619-14.682,11.496-17.229
		c12.129-3.486,15.837-2.117,20.279,9.673c9.354,24.823,15.91,50.509,21.204,76.425c2.786,13.639,7.484,22.119,22.683,26.055
		c36.926,9.561,66.422,31.492,89.903,61.351c4.468,5.681,7.571,5.831,13.572,1.833c18.731-12.479,37.151-25.716,58.779-33.028
		c5.701-1.93,12.335-5.134,16.816,1.946c4.497,7.104,3.421,14.651-1.468,21.087c-4.332,5.704-9.687,10.578-15.812,14.528
		c-14.006,9.039-27.786,18.428-41.948,27.208c-5.03,3.12-5.657,5.217-1.134,9.277c32.991,29.605,47.725,67.002,46.597,110.938
		c-0.183,7.125,4.576,5.773,8.617,5.851c18.604,0.345,37.281-1.045,55.757,2.271c3.828,0.688,7.863,1.28,11.272,2.984
		c3.953,1.979,7.28,5.061,2.682,9.938c-1.02,1.084-1.812,2.754-1.96,4.229c-1.532,15.04-11.113,19.219-24.722,20.407
		c-13.693,1.193-27.319,2.603-41.056,1.841c-6.896-0.385-9.976,1.95-10.294,9.341c-1.677,38.817-15.803,72.423-43.354,100.072
		c-4.72,4.736-3.726,6.929,2.521,7.965c15.508,2.576,30.914,5.478,44.625,13.894c7.229,4.44,12.246,9.875,9.886,19.209
		c-2.185,8.62-8.228,12.005-16.566,12.55c-17.204,1.129-33.879-2.194-50.362-6.371c-6.309-1.603-11.359-1.062-16.345,3.147
		c-32.892,27.799-71.021,42.293-113.946,43.937c-7.604,0.291-8.552,5.438-7.185,9.729c2.927,9.211,3.444,17.672,8.711,27.874
		c4.37,8.466,4.097,8.902,4.763,14.994c-0.742,2.741-1.083,3.598-3.654,7.823 M758.84,1151.788
		c-0.926,6.942-5.162,10.987-10.004,13.341c-8.181,3.979-7.476,8.408-3.872,15.494c6.419,12.633,17.795,20.677,26.433,31.174
		c12.498,15.184,28.389,25.533,46.357,31.569c11.942,4.013,25.72,9.19,37.65-2.407c2.854-2.772,6.634-1.77,10.052,0.185
		c13.199,7.532,15.501,15.552,6.269,27.737c-5.675,7.484-4.418,11.283,3.217,15.88c32.445,19.521,66.968,24.622,103.75,16.428
		c7.672-1.709,12.994-3.568,11.642-13.888c-1.188-9.04,2.3-17.509,12.849-20.426c9.783-2.709,16.579-0.035,23.114,9.886
		c2.283,3.466,4.468,6.24,9.03,6.437c42.161,1.778,78.574-12.438,111.72-39.494c-4.55-2.527-8.127-4.517-11.117-6.178
		c3.535-6.327,13.117-9.709,6.847-19.396c-1.553-2.396,0.479-5.93,2.035-5.304c6.601,2.644,8.22-3.271,11.901-5.764
		c36.737-24.878,52.396-61.082,56.285-103.785c0.808-8.84-2.306-13.399-11.453-14.329c-7.363-0.747-11.724-5.095-11.903-13.05
		c-0.188-8.409-0.388-16.479,9.43-20.393c12.627-5.035,14.651-8.379,13.596-22.229c-2.645-34.562-15.042-64.604-40.968-88.494
		c-5.659-5.213-10.511-8.932-18.838-4.8c-6.385,3.17-19.393-2.557-23.094-8.757c-4.812-8.052,3.22-10.688,6.587-15.243
		c1.153-1.561,2.633-2.916,4.104-4.204c3.293-2.872,3.625-5.907,0.966-9.401c-22.58-29.717-49.26-52.859-88.727-55.69
		c-4.319-0.31-5.875,2.026-6.306,5.723c-0.955,8.191-6.244,11.699-13.744,12.95c-8.129,1.354-14.323-1.378-17.561-9.038
		c-2.744-6.51-7.524-9.246-14.219-10.213c-38.353-5.543-75.503-2.243-111.317,13.56c-8.896,3.926-13.295,7.697-10.531,18.836
		c3.644,14.688-2.037,21.729-15.454,23.994c-10.341,1.75-15.628-4.052-19.819-12.337c-1.148-2.271-1.419-8.25-6.106-5.262
		c-16.155,10.296-36.167,15.115-45.794,34.746c-5.938,12.106-14.305,22.646-19.192,35.822c-7.109,19.182-8.768,18.507,6.963,31.021
		c6.285,5.001,12.076,9.692,6.637,19.508c-7.432,13.406-10.248,15.048-24.771,9.609c-2.752-1.03-5.662-1.838-8.151-3.329
		c-5.257-3.146-8.265-1.663-10.573,3.75c-14.078,33.012-19.809,67.633-19.144,103.277c0.269,14.458,1.165,14.427,16.242,13.427
		c4.096-0.271,7.928,0.594,10.589,3.938c1.683,2.11,2.817,5.092,0.421,7.086c-4.471,3.712-2.37,8.576-3.996,12.868
		C752.198,1157.233,753.536,1151.424,758.84,1151.788z"/>
</g>
<g id="Layer_2">
	<path fill="#DD3A78" d="M1207.994,907.352c9.459-18.752,22.506-32.525,40.678-40.75c30.475-13.793,59.912-11.037,87.014,8.271
		c27.103,19.311,37.351,46.708,33.828,79.307c-3.128,28.964-17.056,53.315-34.227,76.039
		c-19.416,25.691-43.322,46.935-67.997,67.308c-19.354,15.978-39.125,31.444-58.356,46.856c-1.041-0.163-1.493-0.097-1.745-0.292
		c-38.108-29.406-76.589-58.404-109.66-93.671c-19.271-20.552-35.554-43.19-45.152-70.011c-8.413-23.503-10.512-47.396-0.297-70.744
		c13.653-31.206,38.604-48.391,72.107-50.905c34.913-2.618,61.856,12.42,80.232,42.395
		C1205.486,902.894,1206.461,904.69,1207.994,907.352z"/>
</g>
</svg>
