<?xml version="1.0" encoding="utf-8"?>
<!-- Generator: Adobe Illustrator 24.0.2, SVG Export Plug-In . SVG Version: 6.00 Build 0)  -->
<svg version="1.1" id="Layer_1" xmlns="http://www.w3.org/2000/svg" xmlns:xlink="http://www.w3.org/1999/xlink" x="0px" y="0px"
	 viewBox="0 0 2127 2109" style="enable-background:new 0 0 2127 2109;" xml:space="preserve">
<style type="text/css">
	.st0{display:none;}
	.st1{display:inline;fill:#D8D8D8;}
	.st2{fill:#E2669A;}
</style>
<g id="Layer_1_1_" class="st0">
	<path class="st1" d="M1040.6,1361.2c-11.1,7.2-20.4,6.1-27.1-2.9c-8.4-11.2-12.2-24.6-16.2-37.6c-2.3-7.5-5.9-9.5-13.6-7.7
		c-37.8,8.7-74,4.3-108.4-14c-4.5-2.4-8.4-3-12.7,0c-1.6,1.1-3.8,2.2-5.5,1.9c-13.7-2.5-19.3,8.2-26.3,16.2
		c-9.6,10.9-20.3,20.4-32.6,28c-8.7,5.3-13.5,3.4-17.3-6.2c-3.7-9.5-2-17.8,4.9-25.3c13.1-14.2,25.7-28.7,39.1-42.6
		c6-6.3,4.2-8.2-3-11c-37.6-14.4-66.9-38.8-88-73.2c-5.7-9.3-15.9-6.8-24.1-4.8c-15.8,3.9-31.1,10-47.3,12.7
		c-6.8,1.1-13.8,2-20.1-1.7c-4.4-2.6-6.8-5.6-0.2-9c4.8-2.5,15.4-3.7,3-11.3c-3.1-1.9,0.1-4.7,1.8-6.5c4.6-5,11-7.2,17.2-8.9
		c15.9-4.1,29.5-13.5,45-18.2c3-0.9,3.6-2.9,3-6.1c-2.4-12.9-0.6-26,0.1-39.2c0.4,2.8,0.8,5.7,1.2,8.5c-0.7-18.5-0.2-36.8,5.5-54.6
		c3.7-11.8,6.8-23.9,11.7-35.2c3.6-8.4,1.3-12-5.9-16c-19.1-10.7-37.9-21.9-56.7-33.2c-11.6-7-19.1-16.5-18.2-31.2
		c0.7-10.8,3.8-13.2,14.4-9.4c15.8,5.7,30,14.5,44.5,22.7c11.4,6.4,22.3,13.6,36.5,10.7c3.8-0.8,7.6,0.4,10.2,5.6
		c10.6-30.8,26.1-56.5,49.3-77.3c6.4-5.7,12.8-11.3,20.2-15.5c7-4,8.8-8.4,7-16.6c-7-31.6-15.1-62.9-19.9-95
		c-0.9-6.1-0.8-12.4-0.7-18.6c0-4.1,1.6-7.9,5.7-9.5c4.2-1.7,7.6,0.2,10.6,3.1c4.2,3.8,7.2,8.3,9.8,13.3
		c13.1,25,21.5,51.9,29.4,78.8c2.1,7,5.9,9.2,12.8,11.9c16,6.4,30.4,2.2,45.6-1.1c21.4-4.6,43.2-6.9,65.2-3.9
		c13.1,1.8,15,0.2,12-12.6c-5.4-23.6-11.6-46.9-17.3-70.4c-1-4.1-1-8.4-1.8-12.6c-1.9-9.7,2.6-14.7,11.5-17.2
		c12.1-3.5,15.8-2.1,20.3,9.7c9.4,24.8,15.9,50.5,21.2,76.4c2.8,13.6,7.5,22.1,22.7,26.1c36.9,9.6,66.4,31.5,89.9,61.4
		c4.5,5.7,7.6,5.8,13.6,1.8c18.7-12.5,37.2-25.7,58.8-33c5.7-1.9,12.3-5.1,16.8,1.9c4.5,7.1,3.4,14.7-1.5,21.1
		c-4.3,5.7-9.7,10.6-15.8,14.5c-14,9-27.8,18.4-41.9,27.2c-5,3.1-5.7,5.2-1.1,9.3c33,29.6,47.7,67,46.6,110.9
		c-0.2,7.1,4.6,5.8,8.6,5.9c18.6,0.3,37.3-1,55.8,2.3c3.8,0.7,7.9,1.3,11.3,3c4,2,7.3,5.1,2.7,9.9c-1,1.1-1.8,2.8-2,4.2
		c-1.5,15-11.1,19.2-24.7,20.4c-13.7,1.2-27.3,2.6-41.1,1.8c-6.9-0.4-10,1.9-10.3,9.3c-1.7,38.8-15.8,72.4-43.4,100.1
		c-4.7,4.7-3.7,6.9,2.5,8c15.5,2.6,30.9,5.5,44.6,13.9c7.2,4.4,12.2,9.9,9.9,19.2c-2.2,8.6-8.2,12-16.6,12.6
		c-17.2,1.1-33.9-2.2-50.4-6.4c-6.3-1.6-11.4-1.1-16.3,3.1c-32.9,27.8-71,42.3-113.9,43.9c-7.6,0.3-8.6,5.4-7.2,9.7
		c2.9,9.2,3.4,17.7,8.7,27.9c4.4,8.5,4.1,8.9,4.8,15c-0.7,2.7-1.1,3.6-3.7,7.8 M758.8,1151.8c-0.9,6.9-5.2,11-10,13.3
		c-8.2,4-7.5,8.4-3.9,15.5c6.4,12.6,17.8,20.7,26.4,31.2c12.5,15.2,28.4,25.5,46.4,31.6c11.9,4,25.7,9.2,37.7-2.4
		c2.9-2.8,6.6-1.8,10.1,0.2c13.2,7.5,15.5,15.6,6.3,27.7c-5.7,7.5-4.4,11.3,3.2,15.9c32.4,19.5,67,24.6,103.8,16.4
		c7.7-1.7,13-3.6,11.6-13.9c-1.2-9,2.3-17.5,12.8-20.4c9.8-2.7,16.6,0,23.1,9.9c2.3,3.5,4.5,6.2,9,6.4
		c42.2,1.8,78.6-12.4,111.7-39.5c-4.6-2.5-8.1-4.5-11.1-6.2c3.5-6.3,13.1-9.7,6.8-19.4c-1.6-2.4,0.5-5.9,2-5.3
		c6.6,2.6,8.2-3.3,11.9-5.8c36.7-24.9,52.4-61.1,56.3-103.8c0.8-8.8-2.3-13.4-11.5-14.3c-7.4-0.7-11.7-5.1-11.9-13.1
		c-0.2-8.4-0.4-16.5,9.4-20.4c12.6-5,14.7-8.4,13.6-22.2c-2.6-34.6-15-64.6-41-88.5c-5.7-5.2-10.5-8.9-18.8-4.8
		c-6.4,3.2-19.4-2.6-23.1-8.8c-4.8-8.1,3.2-10.7,6.6-15.2c1.2-1.6,2.6-2.9,4.1-4.2c3.3-2.9,3.6-5.9,1-9.4
		c-22.6-29.7-49.3-52.9-88.7-55.7c-4.3-0.3-5.9,2-6.3,5.7c-1,8.2-6.2,11.7-13.7,13c-8.1,1.4-14.3-1.4-17.6-9
		c-2.7-6.5-7.5-9.2-14.2-10.2c-38.4-5.5-75.5-2.2-111.3,13.6c-8.9,3.9-13.3,7.7-10.5,18.8c3.6,14.7-2,21.7-15.5,24
		c-10.3,1.8-15.6-4.1-19.8-12.3c-1.1-2.3-1.4-8.2-6.1-5.3c-16.2,10.3-36.2,15.1-45.8,34.7c-5.9,12.1-14.3,22.6-19.2,35.8
		c-7.1,19.2-8.8,18.5,7,31c6.3,5,12.1,9.7,6.6,19.5c-7.4,13.4-10.2,15-24.8,9.6c-2.8-1-5.7-1.8-8.2-3.3c-5.3-3.1-8.3-1.7-10.6,3.8
		c-14.1,33-19.8,67.6-19.1,103.3c0.3,14.5,1.2,14.4,16.2,13.4c4.1-0.3,7.9,0.6,10.6,3.9c1.7,2.1,2.8,5.1,0.4,7.1
		c-4.5,3.7-2.4,8.6-4,12.9C752.2,1157.2,753.5,1151.4,758.8,1151.8z"/>
</g>
<g id="Layer_2_1_">
	<path class="st2" d="M1208,907.4c9.5-18.8,22.5-32.5,40.7-40.8c30.5-13.8,59.9-11,87,8.3c27.1,19.3,37.4,46.7,33.8,79.3
		c-3.1,29-17.1,53.3-34.2,76c-19.4,25.7-43.3,46.9-68,67.3c-19.4,16-39.1,31.4-58.4,46.9c-1-0.2-1.5-0.1-1.7-0.3
		c-38.1-29.4-76.6-58.4-109.7-93.7c-19.3-20.6-35.6-43.2-45.2-70c-8.4-23.5-10.5-47.4-0.3-70.7c13.7-31.2,38.6-48.4,72.1-50.9
		c34.9-2.6,61.9,12.4,80.2,42.4C1205.5,902.9,1206.5,904.7,1208,907.4z"/>
</g>
</svg>
