<?xml version="1.0" encoding="utf-8"?>
<!-- Generator: Adobe Illustrator 16.0.0, SVG Export Plug-In . SVG Version: 6.00 Build 0)  -->
<!DOCTYPE svg PUBLIC "-//W3C//DTD SVG 1.1//EN" "http://www.w3.org/Graphics/SVG/1.1/DTD/svg11.dtd">
<svg version="1.1" id="Layer_1" xmlns="http://www.w3.org/2000/svg" xmlns:xlink="http://www.w3.org/1999/xlink" x="0px" y="0px"
	 width="2127px" height="2109px" viewBox="0 0 2127 2109" enable-background="new 0 0 2127 2109" xml:space="preserve">
<path fill-rule="evenodd" clip-rule="evenodd" fill="#ABABAB" d="M1219.955,1731.524c-24.221,15.817-44.647,13.283-59.321-6.293
	c-18.408-24.565-26.637-53.759-35.456-82.391c-5.067-16.447-12.865-20.802-29.73-16.92c-82.664,19.029-162.059,9.514-237.192-30.611
	c-9.782-5.221-18.322-6.645-27.872-0.094c-3.41,2.345-8.324,4.752-12.003,4.091c-30.042-5.423-42.217,17.92-57.665,35.465
	c-20.969,23.814-44.409,44.636-71.446,61.191c-19.018,11.648-29.633,7.352-37.799-13.616c-8.124-20.872-4.428-38.999,10.725-55.436
	c28.584-31.006,56.335-62.81,85.483-93.272c13.153-13.749,9.165-18.049-6.583-24.061c-82.317-31.413-146.418-84.87-192.678-160.237
	c-12.488-20.344-34.764-14.879-52.811-10.418c-34.667,8.562-68.145,21.799-103.561,27.731c-14.9,2.493-30.114,4.461-43.943-3.721
	c-9.64-5.707-14.836-12.321-0.527-19.756c10.419-5.411,33.706-8.043,6.647-24.812c-6.808-4.223,0.307-10.238,3.9-14.117
	c10.155-10.972,24.179-15.86,37.758-19.373c34.728-8.985,64.539-29.595,98.575-39.946c6.519-1.982,7.954-6.28,6.661-13.333
	c-5.2-28.347-1.255-56.939,0.304-85.81c0.892,6.208,1.782,12.415,2.672,18.626c-1.602-40.421-0.386-80.504,12.004-119.45
	c8.205-25.787,14.796-52.301,25.562-76.985c7.986-18.306,2.915-26.32-12.818-35.125c-41.807-23.402-83-47.914-124.069-72.598
	c-25.436-15.287-41.819-36.116-39.806-68.239c1.479-23.626,8.406-28.971,31.423-20.619c34.501,12.521,65.648,31.775,97.421,49.633
	c24.962,14.03,48.886,29.742,79.861,23.406c8.416-1.726,16.636,0.985,22.343,12.205c23.145-67.322,57.099-123.646,107.958-169.11
	c13.932-12.454,28.116-24.641,44.179-33.896c15.271-8.805,19.265-18.343,15.277-36.412
	c-15.256-69.122-32.973-137.772-43.629-207.839c-2.025-13.322-1.777-27.072-1.637-40.615c0.094-8.913,3.401-17.233,12.466-20.866
	c9.126-3.658,16.576,0.547,23.302,6.711c9.093,8.328,15.727,18.198,21.475,29.148c28.784,54.828,47.002,113.584,64.412,172.592
	c4.501,15.25,12.973,20.106,27.956,26.13c34.951,14.063,66.476,4.793,99.897-2.412c46.947-10.127,94.633-15.002,142.789-8.511
	c28.708,3.866,32.77,0.479,26.3-27.669c-11.856-51.555-25.355-102.73-37.82-154.153c-2.174-8.968-2.112-18.462-3.934-27.54
	c-4.257-21.225,5.734-32.132,25.164-37.712c26.549-7.63,34.666-4.633,44.389,21.174c20.473,54.337,34.828,110.558,46.415,167.286
	c6.099,29.853,16.384,48.417,49.65,57.03c80.822,20.925,145.388,68.933,196.787,134.286c9.778,12.433,16.577,12.765,29.714,4.014
	c41-27.313,81.318-56.291,128.658-72.3c12.481-4.224,27.004-11.238,36.815,4.26c9.841,15.546,7.484,32.073-3.211,46.158
	c-9.482,12.484-21.206,23.15-34.616,31.802c-30.658,19.783-60.822,40.335-91.819,59.553c-11.014,6.831-12.387,11.417-2.483,20.307
	c72.218,64.806,104.465,146.66,101.995,242.83c-0.397,15.595,10.017,12.637,18.864,12.802c40.724,0.759,81.605-2.286,122.044,4.97
	c8.38,1.507,17.214,2.804,24.675,6.535c8.656,4.327,15.945,11.073,5.871,21.751c-2.232,2.371-3.969,6.024-4.293,9.253
	c-3.351,32.926-24.325,42.072-54.108,44.674c-29.976,2.616-59.802,5.695-89.865,4.026c-15.094-0.839-21.834,4.274-22.53,20.449
	c-3.672,84.971-34.588,158.522-94.9,219.046c-10.325,10.366-8.154,15.165,5.521,17.435c33.941,5.639,67.669,11.985,97.68,30.413
	c15.82,9.72,26.805,21.612,21.633,42.042c-4.775,18.867-18.003,26.275-36.258,27.468c-37.66,2.471-74.16-4.805-110.241-13.946
	c-13.812-3.505-24.873-2.32-35.778,6.896c-71.996,60.844-155.462,92.574-249.415,96.165c-16.646,0.636-18.719,11.906-15.73,21.302
	c6.406,20.158,7.545,38.681,19.068,61.01c9.564,18.533,8.969,19.489,10.427,32.822c-1.625,6-2.375,7.875-8,17.125 M603.149,1273.102
	c-2.025,15.195-11.298,24.051-21.898,29.202c-17.907,8.702-16.361,18.404-8.475,33.912c14.055,27.65,38.954,45.261,57.859,68.239
	c27.354,33.236,62.136,55.888,101.47,69.103c26.145,8.783,56.3,20.121,82.415-5.268c6.244-6.071,14.519-3.872,22.005,0.4
	c28.892,16.49,33.93,34.044,13.718,60.714c-12.42,16.387-9.667,24.704,7.041,34.76c71.022,42.729,146.59,53.895,227.102,35.962
	c16.79-3.74,28.44-7.815,25.48-30.396c-2.599-19.791,5.036-38.328,28.124-44.714c21.417-5.929,36.289-0.078,50.601,21.64
	c4.995,7.583,9.775,13.657,19.767,14.081c92.284,3.897,171.99-27.228,244.539-86.445c-9.957-5.535-17.79-9.884-24.334-13.525
	c7.734-13.848,28.71-21.252,14.982-42.446c-3.396-5.245,1.051-12.981,4.455-11.617c14.445,5.789,17.993-7.153,26.053-12.609
	c80.416-54.452,114.688-133.703,123.207-227.18c1.766-19.344-5.05-29.33-25.072-31.364c-16.116-1.633-25.659-11.147-26.053-28.561
	c-0.417-18.408-0.85-36.074,20.635-44.639c27.637-11.02,32.074-18.337,29.756-48.651c-5.785-75.657-32.923-141.416-89.669-193.706
	c-12.388-11.412-23.008-19.551-41.236-10.508c-13.975,6.938-42.446-5.595-50.551-19.166c-10.523-17.625,7.05-23.397,14.418-33.368
	c2.527-3.417,5.764-6.385,8.985-9.201c7.208-6.288,7.934-12.93,2.116-20.582c-49.427-65.042-107.821-115.7-194.212-121.898
	c-9.454-0.678-12.859,4.436-13.8,12.525c-2.091,17.929-13.667,25.611-30.086,28.346c-17.794,2.961-31.354-3.017-38.434-19.783
	c-6.009-14.248-16.474-20.238-31.127-22.355c-83.945-12.132-165.269-4.908-243.661,29.68c-19.471,8.589-29.1,16.849-23.052,41.23
	c7.971,32.149-4.458,47.559-33.828,52.523c-22.637,3.83-34.206-8.871-43.382-27.006c-2.516-4.972-3.106-18.06-13.371-11.519
	c-35.362,22.538-79.164,33.089-100.238,76.057c-12.996,26.5-31.311,49.566-42.009,78.413c-15.563,41.983-19.187,40.509,15.242,67.9
	c13.759,10.949,26.438,21.216,14.527,42.7c-16.269,29.344-22.433,32.937-54.221,21.033c-6.024-2.255-12.395-4.022-17.846-7.286
	c-11.506-6.885-18.087-3.639-23.14,8.208c-30.817,72.26-43.36,148.042-41.901,226.066c0.59,31.646,2.547,31.576,35.552,29.387
	c8.965-0.592,17.351,1.297,23.176,8.616c3.683,4.624,6.171,11.149,0.921,15.511c-9.782,8.125-5.186,18.774-8.745,28.165
	C588.616,1285.023,591.544,1272.303,603.149,1273.102z"/>
<path fill-rule="evenodd" clip-rule="evenodd" fill="none" d="M603.149,1273.102c-11.605-0.799-14.533,11.921-26.193,10.58
	c3.56-9.391-1.037-20.04,8.745-28.165c5.25-4.361,2.761-10.887-0.921-15.511c-5.826-7.319-14.211-9.208-23.176-8.616
	c-33.005,2.189-34.962,2.259-35.552-29.387c-1.459-78.024,11.083-153.806,41.901-226.066c5.052-11.847,11.634-15.093,23.14-8.208
	c5.451,3.264,11.822,5.03,17.846,7.286c31.789,11.904,37.953,8.311,54.221-21.033c11.91-21.483-0.768-31.751-14.527-42.7
	c-34.429-27.391-30.805-25.917-15.242-67.9c10.699-28.847,29.014-51.913,42.009-78.413c21.074-42.967,64.875-53.519,100.238-76.057
	c10.264-6.542,10.854,6.546,13.371,11.519c9.177,18.135,20.745,30.836,43.382,27.006c29.37-4.965,41.799-20.374,33.828-52.523
	c-6.048-24.381,3.581-32.641,23.052-41.23c78.393-34.588,159.716-41.812,243.661-29.68c14.653,2.117,25.118,8.107,31.127,22.355
	c7.08,16.766,20.64,22.745,38.434,19.783c16.419-2.735,27.995-10.417,30.086-28.346c0.94-8.09,4.346-13.203,13.8-12.525
	c86.391,6.198,144.785,56.857,194.212,121.898c5.817,7.652,5.092,14.294-2.116,20.582c-3.222,2.815-6.458,5.784-8.985,9.201
	c-7.368,9.971-24.941,15.744-14.418,33.368c8.104,13.571,36.576,26.103,50.551,19.166c18.229-9.043,28.849-0.904,41.236,10.508
	c56.746,52.291,83.884,118.049,89.669,193.706c2.318,30.314-2.119,37.632-29.756,48.651c-21.484,8.564-21.052,26.23-20.635,44.639
	c0.394,17.413,9.937,26.928,26.053,28.561c20.022,2.034,26.838,12.021,25.072,31.364c-8.52,93.477-42.791,172.728-123.207,227.18
	c-8.06,5.456-11.607,18.398-26.053,12.609c-3.404-1.364-7.852,6.372-4.455,11.617c13.728,21.194-7.248,28.599-14.982,42.446
	c6.544,3.642,14.377,7.99,24.334,13.525c-72.549,59.218-152.255,90.343-244.539,86.445c-9.991-0.424-14.771-6.498-19.767-14.081
	c-14.312-21.718-29.184-27.568-50.601-21.64c-23.088,6.386-30.723,24.923-28.124,44.714c2.96,22.58-8.69,26.655-25.48,30.396
	c-80.511,17.933-156.08,6.768-227.102-35.962c-16.708-10.056-19.461-18.373-7.041-34.76c20.212-26.67,15.174-44.224-13.718-60.714
	c-7.486-4.272-15.761-6.472-22.005-0.4c-26.115,25.389-56.27,14.051-82.415,5.268c-39.334-13.215-74.116-35.866-101.47-69.103
	c-18.905-22.979-43.804-40.589-57.859-68.239c-7.886-15.508-9.432-25.21,8.475-33.912
	C591.851,1297.153,601.124,1288.298,603.149,1273.102z"/>
</svg>
