<?xml version="1.0" encoding="utf-8"?>
<!-- Generator: Adobe Illustrator 16.0.0, SVG Export Plug-In . SVG Version: 6.00 Build 0)  -->
<!DOCTYPE svg PUBLIC "-//W3C//DTD SVG 1.1//EN" "http://www.w3.org/Graphics/SVG/1.1/DTD/svg11.dtd">
<svg version="1.1" id="Layer_1" xmlns="http://www.w3.org/2000/svg" xmlns:xlink="http://www.w3.org/1999/xlink" x="0px" y="0px"
	 width="2127px" height="2109px" viewBox="0 0 2127 2109" enable-background="new 0 0 2127 2109" xml:space="preserve">
<path fill-rule="evenodd" clip-rule="evenodd" fill="#C7C7C7" d="M1161.139,1459.135c-14.798,9.664-27.278,8.115-36.244-3.846
	c-11.247-15.009-16.274-32.845-21.662-50.339c-3.097-10.049-7.86-12.709-18.165-10.337c-50.506,11.626-99.015,5.812-144.919-18.703
	c-5.977-3.189-11.194-4.06-17.029-0.058c-2.083,1.433-5.086,2.903-7.333,2.5c-18.355-3.313-25.793,10.948-35.231,21.668
	c-12.812,14.55-27.133,27.271-43.652,37.387c-11.619,7.117-18.105,4.491-23.094-8.319c-4.964-12.752-2.706-23.827,6.552-33.87
	c17.464-18.943,34.419-38.375,52.228-56.987c8.037-8.4,5.6-11.027-4.022-14.7c-50.294-19.192-89.458-51.854-117.722-97.901
	c-7.63-12.43-21.24-9.091-32.267-6.365c-21.181,5.231-41.635,13.318-63.273,16.943c-9.103,1.523-18.399,2.726-26.848-2.273
	c-5.89-3.486-9.064-7.528-0.322-12.07c6.366-3.306,20.594-4.914,4.061-15.16c-4.159-2.579,0.188-6.255,2.383-8.625
	c6.204-6.703,14.772-9.69,23.069-11.837c21.218-5.489,39.432-18.081,60.227-24.406c3.983-1.211,4.86-3.837,4.07-8.146
	c-3.177-17.319-0.767-34.789,0.186-52.428c0.545,3.793,1.089,7.585,1.633,11.38c-0.979-24.696-0.236-49.186,7.334-72.981
	c5.013-15.755,9.04-31.955,15.618-47.036c4.879-11.185,1.781-16.081-7.832-21.46c-25.543-14.298-50.711-29.274-75.803-44.356
	c-15.541-9.34-25.551-22.066-24.321-41.692c0.903-14.435,5.136-17.701,19.199-12.598c21.08,7.65,40.109,19.414,59.522,30.325
	c15.251,8.572,29.869,18.171,48.793,14.3c5.142-1.054,10.164,0.602,13.651,7.457c14.141-41.132,34.886-75.545,65.96-103.323
	c8.512-7.609,17.178-15.055,26.992-20.709c9.33-5.38,11.77-11.207,9.334-22.247c-9.321-42.232-20.146-84.176-26.657-126.985
	c-1.237-8.14-1.085-16.541-1-24.815c0.057-5.446,2.078-10.529,7.617-12.749c5.576-2.235,10.127,0.334,14.237,4.1
	c5.556,5.088,9.609,11.119,13.121,17.809c17.586,33.499,28.717,69.397,39.354,105.45c2.75,9.317,7.926,12.284,17.081,15.965
	c21.354,8.592,40.615,2.928,61.035-1.474c28.684-6.187,57.819-9.166,87.241-5.2c17.54,2.362,20.021,0.292,16.069-16.905
	c-7.244-31.499-15.492-62.766-23.107-94.184c-1.328-5.479-1.291-11.28-2.403-16.826c-2.602-12.968,3.503-19.632,15.374-23.042
	c16.221-4.662,21.181-2.83,27.121,12.937c12.508,33.199,21.278,67.548,28.358,102.208c3.726,18.239,10.01,29.582,30.335,34.844
	c49.381,12.785,88.829,42.116,120.232,82.046c5.975,7.596,10.128,7.799,18.154,2.452c25.051-16.688,49.684-34.392,78.607-44.173
	c7.626-2.581,16.499-6.866,22.493,2.603c6.013,9.499,4.573,19.596-1.962,28.202c-5.793,7.627-12.956,14.144-21.149,19.431
	c-18.731,12.087-37.161,24.644-56.1,36.386c-6.729,4.173-7.567,6.975-1.518,12.407c44.124,39.595,63.826,89.605,62.317,148.363
	c-0.243,9.528,6.12,7.721,11.525,7.822c24.881,0.463,49.859-1.397,74.566,3.036c5.12,0.921,10.517,1.713,15.075,3.993
	c5.289,2.644,9.742,6.765,3.587,13.29c-1.363,1.448-2.425,3.681-2.622,5.653c-2.048,20.116-14.862,25.705-33.06,27.294
	c-18.314,1.599-36.537,3.48-54.905,2.461c-9.222-0.513-13.34,2.611-13.766,12.493c-2.243,51.915-21.133,96.854-57.982,133.832
	c-6.308,6.334-4.981,9.266,3.374,10.652c20.737,3.445,41.344,7.323,59.68,18.582c9.666,5.938,16.377,13.204,13.218,25.687
	c-2.918,11.527-11,16.054-22.153,16.782c-23.009,1.51-45.31-2.936-67.354-8.521c-8.438-2.142-15.197-1.418-21.859,4.213
	c-43.988,37.175-94.984,56.561-152.388,58.755c-10.17,0.389-11.437,7.274-9.61,13.015c3.914,12.316,4.609,23.633,11.65,37.275
	c5.844,11.324,5.479,11.908,6.37,20.054c-0.993,3.666-1.451,4.812-4.888,10.464 M784.284,1179.05
	c-1.237,9.284-6.903,14.694-13.379,17.842c-10.94,5.317-9.996,11.245-5.178,20.72c8.587,16.894,23.8,27.653,35.351,41.692
	c16.713,20.307,37.964,34.146,61.996,42.221c15.974,5.366,34.397,12.293,50.354-3.219c3.815-3.709,8.871-2.366,13.444,0.245
	c17.652,10.074,20.73,20.8,8.382,37.095c-7.589,10.012-5.907,15.093,4.302,21.237c43.393,26.106,89.563,32.928,138.753,21.972
	c10.259-2.285,17.377-4.775,15.568-18.571c-1.588-12.092,3.077-23.417,17.184-27.319c13.085-3.622,22.172-0.047,30.915,13.222
	c3.053,4.633,5.973,8.345,12.077,8.604c56.384,2.381,105.082-16.636,149.408-52.816c-6.084-3.382-10.869-6.039-14.868-8.264
	c4.726-8.461,17.542-12.984,9.154-25.934c-2.075-3.205,0.642-7.932,2.722-7.098c8.826,3.537,10.994-4.371,15.918-7.704
	c49.133-33.27,70.071-81.689,75.276-138.802c1.079-11.818-3.085-17.92-15.318-19.163c-9.847-0.997-15.677-6.811-15.918-17.449
	c-0.255-11.247-0.519-22.041,12.607-27.273c16.886-6.733,19.597-11.204,18.181-29.725c-3.535-46.225-20.115-86.402-54.786-118.35
	c-7.568-6.973-14.057-11.945-25.194-6.42c-8.538,4.239-25.934-3.418-30.885-11.71c-6.43-10.768,4.307-14.295,8.809-20.387
	c1.544-2.087,3.521-3.901,5.49-5.622c4.403-3.842,4.847-7.9,1.293-12.575c-30.199-39.739-65.877-70.69-118.659-74.477
	c-5.776-0.414-7.857,2.71-8.432,7.653c-1.277,10.954-8.351,15.647-18.382,17.318c-10.872,1.81-19.156-1.843-23.482-12.087
	c-3.671-8.706-10.064-12.365-19.018-13.659c-51.289-7.413-100.975-2.999-148.871,18.134c-11.896,5.248-17.78,10.294-14.084,25.19
	c4.87,19.643-2.724,29.058-20.668,32.091c-13.831,2.34-20.899-5.42-26.506-16.5c-1.537-3.038-1.898-11.034-8.169-7.038
	c-21.605,13.77-48.368,20.217-61.243,46.469c-7.94,16.191-19.13,30.284-25.667,47.909c-9.509,25.65-11.723,24.75,9.312,41.485
	c8.406,6.689,16.152,12.963,8.875,26.088c-9.939,17.928-13.706,20.124-33.128,12.851c-3.68-1.378-7.573-2.458-10.903-4.452
	c-7.03-4.207-11.051-2.223-14.138,5.015c-18.829,44.149-26.492,90.45-25.601,138.121c0.36,19.335,1.556,19.292,21.722,17.954
	c5.477-0.361,10.601,0.793,14.16,5.265c2.25,2.825,3.771,6.812,0.563,9.477c-5.977,4.965-3.168,11.471-5.343,17.208
	C775.405,1186.333,777.194,1178.561,784.284,1179.05z"/>
<path fill-rule="evenodd" clip-rule="evenodd" fill="none" d="M603.149,1273.102c-11.605-0.799-14.533,11.921-26.193,10.58
	c3.56-9.391-1.037-20.04,8.745-28.165c5.25-4.361,2.761-10.887-0.921-15.511c-5.826-7.319-14.211-9.208-23.176-8.616
	c-33.005,2.189-34.962,2.259-35.552-29.387c-1.459-78.024,11.083-153.806,41.901-226.066c5.052-11.847,11.634-15.093,23.14-8.208
	c5.451,3.264,11.822,5.03,17.846,7.286c31.789,11.904,37.953,8.311,54.221-21.033c11.91-21.483-0.768-31.751-14.527-42.7
	c-34.429-27.391-30.805-25.917-15.242-67.9c10.699-28.847,29.014-51.913,42.009-78.413c21.074-42.967,64.875-53.519,100.238-76.057
	c10.264-6.542,10.854,6.546,13.371,11.519c9.177,18.135,20.745,30.836,43.382,27.006c29.37-4.965,41.799-20.374,33.828-52.523
	c-6.048-24.381,3.581-32.641,23.052-41.23c78.393-34.588,159.716-41.812,243.661-29.68c14.653,2.117,25.118,8.107,31.127,22.355
	c7.08,16.766,20.64,22.745,38.434,19.783c16.419-2.735,27.995-10.417,30.086-28.346c0.94-8.09,4.346-13.203,13.8-12.525
	c86.391,6.198,144.785,56.857,194.212,121.898c5.817,7.652,5.092,14.294-2.116,20.582c-3.222,2.815-6.458,5.784-8.985,9.201
	c-7.368,9.971-24.941,15.744-14.418,33.368c8.104,13.571,36.576,26.103,50.551,19.166c18.229-9.043,28.849-0.904,41.236,10.508
	c56.746,52.291,83.884,118.049,89.669,193.706c2.318,30.314-2.119,37.632-29.756,48.651c-21.484,8.564-21.052,26.23-20.635,44.639
	c0.394,17.413,9.937,26.928,26.053,28.561c20.022,2.034,26.838,12.021,25.072,31.364c-8.52,93.477-42.791,172.728-123.207,227.18
	c-8.06,5.456-11.607,18.398-26.053,12.609c-3.404-1.364-7.852,6.372-4.455,11.617c13.728,21.194-7.248,28.599-14.982,42.446
	c6.544,3.642,14.377,7.99,24.334,13.525c-72.549,59.218-152.255,90.343-244.539,86.445c-9.991-0.424-14.771-6.498-19.767-14.081
	c-14.312-21.718-29.184-27.568-50.601-21.64c-23.088,6.386-30.723,24.923-28.124,44.714c2.96,22.58-8.69,26.655-25.48,30.396
	c-80.511,17.933-156.08,6.768-227.102-35.962c-16.708-10.056-19.461-18.373-7.041-34.76c20.212-26.67,15.174-44.224-13.718-60.714
	c-7.486-4.272-15.761-6.472-22.005-0.4c-26.115,25.389-56.27,14.051-82.415,5.268c-39.334-13.215-74.116-35.866-101.47-69.103
	c-18.905-22.979-43.804-40.589-57.859-68.239c-7.886-15.508-9.432-25.21,8.475-33.912
	C591.851,1297.153,601.124,1288.298,603.149,1273.102z"/>
</svg>
