<?xml version="1.0" encoding="utf-8"?>
<!-- Generator: Adobe Illustrator 16.0.0, SVG Export Plug-In . SVG Version: 6.00 Build 0)  -->
<!DOCTYPE svg PUBLIC "-//W3C//DTD SVG 1.1//EN" "http://www.w3.org/Graphics/SVG/1.1/DTD/svg11.dtd">
<svg version="1.1" xmlns="http://www.w3.org/2000/svg" xmlns:xlink="http://www.w3.org/1999/xlink" x="0px" y="0px" width="2127px"
	 height="2109px" viewBox="0 0 2127 2109" enable-background="new 0 0 2127 2109" xml:space="preserve">
<g id="Layer_1" display="none">
	<path display="inline" fill="#D8D8D8" d="M1040.628,1361.219c-11.064,7.227-20.398,6.065-27.102-2.876
		c-8.41-11.225-12.169-24.561-16.2-37.641c-2.313-7.515-5.876-9.504-13.58-7.729c-37.766,8.692-74.037,4.346-108.362-13.984
		c-4.47-2.384-8.37-3.036-12.733-0.043c-1.558,1.071-3.804,2.171-5.482,1.869c-13.726-2.478-19.286,8.188-26.344,16.201
		c-9.581,10.881-20.289,20.393-32.641,27.956c-8.689,5.32-13.539,3.358-17.268-6.221c-3.713-9.534-2.024-17.815,4.897-25.326
		c13.061-14.163,25.737-28.694,39.054-42.611c6.011-6.281,4.188-8.244-3.007-10.992c-37.605-14.351-66.891-38.772-88.024-73.203
		c-5.705-9.294-15.884-6.797-24.128-4.76c-15.839,3.912-31.132,9.958-47.311,12.669c-6.807,1.14-13.758,2.04-20.075-1.697
		c-4.404-2.607-6.777-5.63-0.242-9.027c4.762-2.472,15.399-3.673,3.037-11.334c-3.108-1.928,0.142-4.678,1.781-6.451
		c4.638-5.012,11.046-7.244,17.25-8.85c15.866-4.104,29.484-13.521,45.035-18.249c2.978-0.902,3.634-2.868,3.042-6.09
		c-2.374-12.95-0.572-26.015,0.14-39.201c0.408,2.835,0.814,5.669,1.222,8.508c-0.733-18.466-0.179-36.778,5.482-54.571
		c3.749-11.78,6.761-23.893,11.679-35.17c3.648-8.364,1.331-12.023-5.855-16.046c-19.099-10.692-37.918-21.889-56.68-33.167
		c-11.62-6.985-19.107-16.5-18.188-31.174c0.676-10.794,3.84-13.236,14.356-9.421c15.761,5.721,29.989,14.517,44.507,22.676
		c11.403,6.41,22.334,13.588,36.484,10.694c3.845-0.788,7.6,0.449,10.207,5.575c10.573-30.756,26.084-56.487,49.321-77.259
		c6.365-5.688,12.844-11.257,20.184-15.485c6.976-4.022,8.801-8.379,6.979-16.636c-6.969-31.579-15.063-62.941-19.933-94.95
		c-0.926-6.088-0.812-12.368-0.747-18.556c0.042-4.072,1.554-7.874,5.694-9.533c4.17-1.671,7.572,0.25,10.646,3.065
		c4.155,3.805,7.185,8.314,9.812,13.317c13.149,25.047,21.473,51.89,29.428,78.848c2.056,6.966,5.925,9.185,12.771,11.938
		c15.967,6.425,30.369,2.189,45.639-1.102c21.446-4.626,43.233-6.853,65.232-3.888c13.116,1.765,14.971,0.217,12.016-12.643
		c-5.416-23.553-11.584-46.932-17.279-70.425c-0.992-4.097-0.965-8.434-1.795-12.581c-1.946-9.697,2.619-14.681,11.496-17.229
		c12.129-3.486,15.837-2.117,20.279,9.673c9.354,24.823,15.91,50.508,21.204,76.424c2.787,13.639,7.485,22.12,22.683,26.055
		c36.926,9.561,66.422,31.492,89.903,61.351c4.468,5.68,7.572,5.831,13.573,1.833c18.731-12.479,37.151-25.716,58.779-33.029
		c5.701-1.929,12.335-5.133,16.816,1.947c4.497,7.103,3.421,14.651-1.467,21.087c-4.332,5.704-9.687,10.578-15.813,14.528
		c-14.006,9.039-27.786,18.428-41.948,27.208c-5.03,3.12-5.657,5.217-1.134,9.277c32.991,29.606,47.725,67.002,46.597,110.938
		c-0.183,7.125,4.576,5.773,8.617,5.85c18.604,0.345,37.281-1.045,55.757,2.271c3.828,0.688,7.863,1.28,11.272,2.984
		c3.953,1.979,7.281,5.061,2.682,9.938c-1.02,1.084-1.812,2.754-1.96,4.228c-1.532,15.04-11.113,19.219-24.722,20.407
		c-13.693,1.194-27.319,2.603-41.055,1.841c-6.896-0.384-9.976,1.951-10.294,9.341c-1.677,38.818-15.803,72.423-43.354,100.072
		c-4.72,4.737-3.726,6.929,2.521,7.965c15.507,2.577,30.914,5.478,44.625,13.894c7.228,4.44,12.246,9.875,9.885,19.209
		c-2.184,8.62-8.227,12.005-16.566,12.55c-17.204,1.129-33.879-2.195-50.362-6.371c-6.309-1.603-11.36-1.062-16.345,3.147
		c-32.892,27.799-71.021,42.293-113.946,43.936c-7.604,0.291-8.552,5.438-7.185,9.729c2.927,9.211,3.445,17.672,8.711,27.874
		c4.37,8.466,4.097,8.902,4.763,14.994c-0.742,2.741-1.083,3.598-3.654,7.823 M758.84,1151.788
		c-0.926,6.943-5.162,10.987-10.004,13.341c-8.181,3.978-7.476,8.408-3.872,15.494c6.419,12.633,17.795,20.677,26.433,31.174
		c12.498,15.184,28.388,25.533,46.357,31.569c11.942,4.013,25.72,9.191,37.65-2.407c2.854-2.772,6.634-1.769,10.052,0.185
		c13.199,7.532,15.501,15.551,6.269,27.737c-5.675,7.484-4.418,11.283,3.216,15.88c32.446,19.521,66.968,24.622,103.75,16.428
		c7.672-1.709,12.994-3.569,11.642-13.888c-1.188-9.04,2.3-17.509,12.849-20.426c9.783-2.709,16.579-0.035,23.114,9.886
		c2.283,3.466,4.468,6.24,9.03,6.436c42.161,1.779,78.574-12.438,111.72-39.494c-4.55-2.527-8.127-4.516-11.117-6.177
		c3.535-6.328,13.117-9.71,6.846-19.396c-1.552-2.396,0.479-5.93,2.035-5.304c6.601,2.644,8.22-3.27,11.902-5.763
		c36.737-24.878,52.395-61.082,56.285-103.786c0.808-8.839-2.306-13.399-11.453-14.329c-7.363-0.747-11.724-5.095-11.903-13.05
		c-0.189-8.409-0.388-16.479,9.429-20.392c12.627-5.035,14.652-8.379,13.596-22.229c-2.645-34.562-15.042-64.604-40.968-88.494
		c-5.659-5.213-10.511-8.931-18.838-4.8c-6.384,3.17-19.392-2.556-23.093-8.756c-4.812-8.052,3.219-10.689,6.586-15.244
		c1.154-1.56,2.633-2.916,4.104-4.204c3.293-2.872,3.625-5.907,0.966-9.401c-22.58-29.717-49.26-52.859-88.727-55.69
		c-4.319-0.31-5.875,2.026-6.305,5.722c-0.955,8.192-6.244,11.699-13.744,12.95c-8.129,1.354-14.324-1.378-17.561-9.038
		c-2.744-6.509-7.524-9.246-14.219-10.213c-38.352-5.543-75.503-2.243-111.317,13.56c-8.896,3.926-13.295,7.697-10.531,18.836
		c3.643,14.688-2.037,21.728-15.454,23.994c-10.341,1.75-15.628-4.052-19.82-12.337c-1.148-2.271-1.419-8.25-6.106-5.262
		c-16.155,10.296-36.167,15.116-45.794,34.747c-5.938,12.106-14.305,22.645-19.192,35.822c-7.11,19.181-8.768,18.507,6.962,31.021
		c6.286,5.001,12.077,9.693,6.637,19.508c-7.431,13.406-10.248,15.048-24.771,9.609c-2.752-1.03-5.662-1.837-8.152-3.329
		c-5.257-3.146-8.264-1.663-10.573,3.75c-14.078,33.012-19.809,67.633-19.144,103.278c0.269,14.458,1.165,14.426,16.243,13.426
		c4.095-0.27,7.927,0.594,10.588,3.938c1.683,2.11,2.818,5.092,0.421,7.086c-4.47,3.712-2.37,8.576-3.996,12.868
		C752.198,1157.233,753.536,1151.424,758.84,1151.788z"/>
</g>
<g id="Layer_2">
	<path fill-rule="evenodd" clip-rule="evenodd" fill="#DD3A78" d="M1207.976,982.249c8.864-17.574,21.092-30.482,38.121-38.189
		c28.56-12.926,56.147-10.344,81.545,7.75c25.399,18.097,35.003,43.772,31.703,74.322c-2.932,27.144-15.984,49.966-32.076,71.26
		c-18.195,24.078-40.6,43.984-63.724,63.078c-18.137,14.974-36.666,29.469-54.689,43.912c-0.975-0.153-1.399-0.091-1.636-0.274
		c-35.714-27.558-71.774-54.733-102.769-87.784c-18.061-19.259-33.32-40.477-42.314-65.61c-7.884-22.027-9.851-44.418-0.279-66.297
		c12.795-29.245,36.178-45.35,67.576-47.706c32.72-2.454,57.971,11.64,75.191,39.73
		C1205.624,978.071,1206.539,979.754,1207.976,982.249z"/>
</g>
</svg>
